<svg viewBox="0 0 750 471" fill="none" xmlns="http://www.w3.org/2000/svg">
  <path d="M40 0C17.9086 0 0 17.9086 0 40V431C0 453.091 17.9086 471 40 471H710C732.091 471 750 453.091 750 431V40C750 17.9086 732.091 0 710 0H40Z" fill="#005498"/>
  <path d="M446.79 157.42H303.21C301.428 157.42 299.72 158.11 298.47 159.34C297.22 160.578 296.5 162.27 296.5 164.05V306.95C296.5 308.73 297.22 310.422 298.47 311.66C299.72 312.89 301.428 313.58 303.21 313.58H446.79C448.572 313.58 450.28 312.89 451.53 311.66C452.78 310.422 453.5 308.73 453.5 306.95V164.05C453.5 162.27 452.78 160.578 451.53 159.34C450.28 158.11 448.572 157.42 446.79 157.42Z" fill="#FFF72D"/>
  <path d="M375 235.5C354.5 235.5 338 252 338 271.5C338 291 354.5 307.5 375 307.5C395.5 307.5 412 291 412 271.5C412 252 395.5 235.5 375 235.5Z" fill="#005498"/>
  <path fill-rule="evenodd" clip-rule="evenodd" d="M221.144 277.236L192.118 223.764H221.856L243.5 267.375L228.8 277.236H221.144Z" fill="white"/>
  <path fill-rule="evenodd" clip-rule="evenodd" d="M139.5 235.375H113.5V277.236H139.5V235.375Z" fill="white"/>
  <path fill-rule="evenodd" clip-rule="evenodd" d="M153.5 269.764L165.856 223.764H200.144L178.211 277.236H153.5V269.764Z" fill="white"/>
  <path fill-rule="evenodd" clip-rule="evenodd" d="M526.5 277.236L548.211 223.764H573.145L551.789 277.236H526.5Z" fill="white"/>
  <path fill-rule="evenodd" clip-rule="evenodd" d="M636.5 223.764H611.5V277.236H636.5V223.764Z" fill="white"/>
  <path fill-rule="evenodd" clip-rule="evenodd" d="M582.856 277.236L611.856 223.764H582.144L560.5 267.375L575.2 277.236H582.856Z" fill="white"/>
  <path fill-rule="evenodd" clip-rule="evenodd" d="M478.789 223.764L457.856 277.236H483.144L504.5 223.764H478.789Z" fill="white"/>
  <path fill-rule="evenodd" clip-rule="evenodd" d="M245.211 223.764L266.144 277.236H240.856L219.5 223.764H245.211Z" fill="white"/>
</svg>