<svg width="256" height="126" viewBox="0 0 256 126" fill="none" xmlns="http://www.w3.org/2000/svg">
<path d="M166.688 48.373H89.3486V91.2725H166.688V48.373Z" fill="#F26E21"/>
<path d="M94.0361 69.8187C94.0361 59.1999 102.824 50.4119 113.442 50.4119C124.061 50.4119 132.849 59.1999 132.849 69.8187C132.849 80.4375 124.061 89.2256 113.442 89.2256C102.824 89.2256 94.0361 80.4375 94.0361 69.8187Z" fill="#F26E21"/>
<path d="M15.6338 6C7.00002 6 0 13.0001 0 21.6343V104.366C0 112.999 7.00002 120 15.6338 120H240.366C248.999 120 256 112.999 256 104.366V21.6343C256 13.0001 248.999 6 240.366 6H15.6338Z" stroke="#DCDCDC" stroke-width="12"/>
<path d="M172.996 67.6889L171.085 59.1349H167.35L172.143 75.4779H174.128L179.037 59.1349H175.414L172.996 67.6889Z" fill="black"/>
<path d="M180.293 75.4782H183.844V59.1343H180.293V75.4782Z" fill="black"/>
<path d="M142.809 62.2942C142.809 65.335 140.341 67.3493 136.4 67.3493H134.872V57.2391H136.4C140.341 57.2391 142.809 59.2543 142.809 62.2942ZM139.325 62.2942C139.325 60.8903 138.179 59.7115 136.502 59.7115H138.299L136.231 64.8769L136.502 64.8778C138.179 64.8778 139.325 63.699 139.325 62.2942Z" fill="white"/>
<path d="M186.129 72.0535C184.738 72.0535 183.65 71.3158 183.232 70.1372L180.072 71.0901C180.75 73.6455 183.166 75.7437 186.129 75.7437C189.633 75.7437 192.322 73.2712 192.322 69.9043C192.322 64.4621 185.383 65.5578 185.383 63.3427C185.383 62.6051 186.061 62.1313 187.112 62.1313C188.231 62.1313 189.157 62.8699 189.429 63.8228L192.522 62.8699C191.845 60.5717 189.769 58.8667 187.112 58.8667C184.059 58.8667 181.776 60.8819 181.776 63.4258C181.776 68.8681 188.708 67.7724 188.708 70.0542C188.708 70.9239 187.858 72.0535 186.129 72.0535Z" fill="black"/>
<path d="M194.868 75.4779H198.284L198.692 73.9137H203.601L204.008 75.4779H207.425L203.465 59.1349H198.827L194.868 75.4779ZM199.641 70.6944L201.111 64.0527L202.652 70.6944H199.641Z" fill="black"/>
<path d="M147.376 59.0522C147.376 59.0522 144.728 62.2112 143.718 63.2889L143.718 59.1341H140.234V75.4781H143.718L143.718 67.1831C145.474 64.8018 149.277 62.1241 149.277 62.1241C149.277 62.1241 147.717 66.7103 147.717 67.1831V75.4781H151.2V59.1341H147.717L147.376 59.0522Z" fill="white"/>
<path d="M159.138 60.8068C156.56 60.8068 155.509 62.3704 155.1 63.1812V59.1343H151.616V75.4782H155.1V66.4522C155.1 64.6644 156.085 63.8173 157.34 63.8173C158.457 63.8173 159.273 64.5549 159.273 66.1361V75.4782H162.758V65.2651C162.758 62.1342 161.107 60.8068 159.138 60.8068Z" fill="white"/>
<path d="M163.367 75.478H166.852V59.1341H163.367V75.478Z" fill="black"/>
<path d="M208.134 75.4781H211.619V67.1831C213.241 64.9349 215.142 63.3179 216.328 62.5803V59.1349C214.973 59.6162 212.832 61.2145 211.619 62.5803V59.1349H208.134V75.4781Z" fill="black"/>
<path d="M115.188 67.2673C114.165 69.1994 112.143 70.5268 109.855 70.5268C106.215 70.5268 103.267 67.5786 103.267 63.9393C103.267 60.2999 106.215 57.3517 109.855 57.3517C112.143 57.3517 114.165 58.6792 115.188 60.6113H120.04C118.744 56.0674 114.71 52.7004 109.855 52.7004C103.777 52.7004 98.8691 57.7323 98.8691 63.9393C98.8691 70.1462 103.777 75.1781 109.855 75.1781C114.71 75.1781 118.744 71.8111 120.04 67.2673H115.188Z" fill="white"/>
<path d="M122.859 75.4776H135.394V70.8259H127.301V67.7782H134.852V63.2163H127.301V63.1249C127.301 61.6039 128.455 60.4677 129.989 60.4677H134.989V55.9058H127.914C125.069 55.9058 122.859 58.4443 122.859 61.3757V75.4776Z" fill="white"/>
</svg>