<svg width="100" height="60" viewBox="0 0 100 60" fill="none" xmlns="http://www.w3.org/2000/svg">
  <circle cx="39" cy="30" r="15" fill="#EB001B"/>
  <circle cx="61" cy="30" r="15" fill="#00A2E5"/>
  <path d="M50 40.8332C54.5833 37.4999 54.5833 32.0832 50 28.7499C45.4167 25.4166 40 25.4166 35.4167 28.7499C30.8333 32.0832 30.8333 37.4999 35.4167 40.8332C40 44.1666 45.4167 44.1666 50 40.8332Z" fill="#7375CF"/>
  <path d="M49.9999 45.8333C55.5228 45.8333 59.9999 38.8071 59.9999 30C59.9999 21.1929 55.5228 14.1667 49.9999 14.1667C44.4771 14.1667 40 21.1929 40 30C40 38.8071 44.4771 45.8333 49.9999 45.8333Z" fill="#7375CF"/>
  <path fill-rule="evenodd" clip-rule="evenodd" d="M49.9999 43.3234C54.6599 43.3234 58.4399 37.3639 58.4399 30.0001C58.4399 22.6363 54.6599 16.6768 49.9999 16.6768C45.3399 16.6768 41.5599 22.6363 41.5599 30.0001C41.5599 37.3639 45.3399 43.3234 49.9999 43.3234Z" fill="#7375CF"/>
  <path d="M30 30H70" stroke="white" stroke-width="2"/>
  <path d="M50 48C54.9706 48 59 39.9411 59 30C59 20.0589 54.9706 12 50 12C45.0294 12 41 20.0589 41 30C41 39.9411 45.0294 48 50 48Z" fill="#7375CF"/>
  <text x="32" y="53" fill="black" font-family="Arial" font-size="7">maestro</text>
</svg>