<svg width="100" height="60" viewBox="0 0 100 60" fill="none" xmlns="http://www.w3.org/2000/svg">
  <path d="M32.059 21.9153L27.1989 38.0835H23.4062L28.2657 21.9153H32.059Z" fill="#00579F"/>
  <path d="M45.3359 22.2803C44.3721 21.8843 42.9011 21.4355 41.092 21.4355C36.6692 21.4355 33.5928 23.7062 33.574 27.0778C33.556 29.5367 35.7939 30.9239 37.4961 31.7833C39.2358 32.661 39.8339 33.2347 39.8339 34.0185C39.8339 35.1778 38.4378 35.7071 37.1414 35.7071C35.3467 35.7071 34.4014 35.3847 32.8985 34.6656L32.2635 34.3802L31.5914 37.5978C32.7235 38.1345 34.8618 38.6059 37.0861 38.6243C41.8089 38.6243 44.8307 36.3907 44.8584 32.7708C44.8767 30.8167 43.7632 29.3384 41.1297 28.0516C39.546 27.2304 38.5824 26.6752 38.5824 25.8361C38.5824 25.0707 39.4518 24.2865 41.3092 24.2865C42.8119 24.2494 43.9072 24.6638 44.756 25.0707L45.2093 25.2836L45.8632 22.1762L45.3359 22.2803Z" fill="#00579F"/>
  <path d="M52.3945 32.0516C52.7761 31.1018 54.0354 27.8245 54.0354 27.8245C54.0169 27.861 54.3804 26.8744 54.5897 26.2641L54.8915 27.7061C54.8915 27.7061 55.6633 31.2247 55.8545 32.0516C55.2194 32.0516 53.1737 32.0516 52.3945 32.0516ZM57.6677 21.9153H54.598C53.5253 21.9153 52.7209 22.2251 52.2674 23.2301L44.4678 38.0835H49.1861C49.1861 38.0835 50.0552 35.8134 50.2464 35.3096C50.7917 35.3096 56.2348 35.3096 56.9254 35.3096C57.0797 35.9566 57.5331 38.0835 57.5331 38.0835H61.7325L57.6677 21.9153Z" fill="#00579F"/>
  <path d="M21.6113 21.9153L17.2066 32.9646L16.8436 31.1568C16.195 28.5573 13.9757 25.7767 11.5098 24.2979L15.6376 38.0835H20.3747L27.7599 21.9153H21.6113Z" fill="#00579F"/>
  <path d="M14.0303 22.3475H6.93681L6.85498 22.6513C12.1992 24.0019 15.6376 27.2239 16.8436 31.1568L15.2778 23.2671C15.016 22.446 14.6068 22.3661 14.0303 22.3475Z" fill="#FAA61A"/>
</svg>