<svg xmlns="http://www.w3.org/2000/svg" width="60" height="40" viewBox="0 0 60 40">
  <rect width="60" height="40" rx="4" fill="white" stroke="#E6E6E6" stroke-width="1"/>
  <g transform="translate(6, 10)">
    <path d="M48 16.376v.806h-3.063v1.854H43.874v-1.854h-3.062v-.806h3.062v-1.7h1.063v1.7H48zm-3.125-9.576v.806h-3v1.854h-1.062v-1.854H37.75v-.806h3.063v-1.7h1.062v1.7H44.875zM3.688 17.273l-.375-1.154h-2l-.375 1.154H0L2 11.515h1.938l2 5.758h-.25zm-1.375-4.343l-.75 2.267h1.5l-.75-2.267zm11.937 4.383h-3.25V11.63h3.25c1.94 0 3.125 1.176 3.125 2.804 0 1.689-1.187 2.88-3.125 2.88zM14.25 13.6c-.187-.213-.562-.382-1.062-.382h-1.376v2.652h1.375c.5 0 .875-.17 1.063-.4.187-.23.25-.535.25-.92 0-.401-.063-.737-.25-.95zm5.75 3.713v-5.683h4.5v1.169h-3.125v1.093H24.5v1.162h-3.125v1.089H24.5v1.17h-4.5zm7.688 0v-5.683h1.374l2.813 3.67V11.63H33.25v5.682h-1.5l-2.688-3.464v3.464h-1.374zM37.75 13.6c-.188-.213-.563-.382-1.063-.382h-1.375v2.652h1.375c.5 0 .875-.17 1.063-.4.187-.23.25-.535.25-.92 0-.401-.063-.737-.25-.95z" fill="#006FCF"/>
  </g>
</svg>