<svg xmlns="http://www.w3.org/2000/svg" width="60" height="40" viewBox="0 0 60 40">
  <rect width="60" height="40" rx="4" fill="white" stroke="#E6E6E6" stroke-width="1"/>
  <g transform="translate(10, 13)">
    <path fill-rule="evenodd" clip-rule="evenodd" d="M21.7109 8.09326C21.7109 8.09326 22.6359 3.68076 19.0859 1.24326H23.7109C26.1109 1.24326 27.1859 3.55576 27.1859 3.55576L31.0359 13.7433H26.9859L25.3359 8.09326H21.7109ZM23.3109 4.85576C23.1854 4.85576 22.2109 4.85576 21.2484 4.85576C19.4979 4.85576 18.7609 6.28326 18.7609 6.28326L17.0859 13.7433H21.1359L23.3109 4.85576ZM0.648438 13.7433H4.67344L7.71094 1.24326H3.68594L0.648438 13.7433ZM12.6609 1.24326C14.9734 1.24326 16.3359 3.05576 16.0859 4.55576C15.8359 6.05576 14.6609 7.18076 12.1609 7.18076C9.66094 7.18076 8.98594 7.18076 8.98594 7.18076C8.98594 7.18076 9.18594 5.55576 9.18594 5.05576C9.18594 4.55576 8.98594 4.05576 8.48594 3.55576C7.86094 2.73076 6.13594 1.24326 6.13594 1.24326L12.6609 1.24326ZM40.5234 1.24326C41.0234 1.24326 38.3609 1.24326 37.8609 1.24326C37.3609 1.24326 36.8984 1.74326 36.8984 2.24326L36.1734 6.05576H39.7984C40.2984 6.05576 39.7984 6.05576 40.2984 6.05576C40.7984 6.05576 40.9609 5.55576 40.7109 4.85576L40.5234 1.24326ZM36.0234 10.0558C36.0234 10.0558 36.8609 6.65576 39.8109 6.65576C42.7609 6.65576 38.3609 6.65576 38.3609 6.65576C38.3609 6.65576 37.0234 10.0558 36.0234 10.0558ZM34.5234 13.7433L36.9609 1.24326H32.8609L30.5234 13.7433H34.5234ZM37.3609 13.7433L39.8984 6.43326H35.8984L33.3609 13.7433H37.3609Z" fill="#313191"/>
  </g>
</svg>