<svg xmlns="http://www.w3.org/2000/svg" width="60" height="40" viewBox="0 0 60 40">
  <rect width="60" height="40" rx="4" fill="white" stroke="#E6E6E6" stroke-width="1"/>
  <g transform="translate(6, 10)">
    <path d="M17.014 0L10.9 19.175H6.994L0.88 3.58C0.88 3.58 0.302 1.989 0 1.193h7.876C9.033 1.193 9.751 1.989 9.891 2.983L12.969 14.398L17.014 0H17.014Z" fill="#172B85"/>
    <path d="M48 0L44.652 19.175H40.887L44.234 0H48Z" fill="#172B85"/>
    <path d="M34.07 0C36.659 0 38.67 0.796 38.53 3.32C38.39 5.709 36.798 7.46 34.486 7.7C32.752 7.939 31.022 6.826 31.022 6.826C31.022 6.826 31.301 8.179 31.301 8.974C31.301 9.77 31.022 10.566 30.325 11.203C28.591 13.032 26.304 12.078 24.171 10.009C21.898 7.779 21.201 4.911 21.619 2.663C22.177 0.157 24.311 0 25.906 0L34.07 0ZM34.209 3.58C33.652 3.58 32.195 3.58 31.498 3.58C30.186 3.58 29.629 4.593 29.767 5.431C29.906 6.269 30.464 7.122 31.36 7.122C32.195 7.122 32.752 6.428 32.613 5.59C32.474 4.593 31.777 4.235 31.777 4.235C31.777 4.235 32.334 3.878 33.512 3.878C34.626 3.878 34.765 4.434 34.765 4.832C34.765 6.15 32.892 6.587 32.892 6.587C32.892 6.587 35.881 6.428 36.161 4.157C36.161 3.401 35.603 3.58 34.209 3.58Z" fill="#172B85"/>
    <path d="M41.583 4.911C41.583 4.911 42.002 2.504 44.289 1.193H41.164C39.432 1.193 38.724 2.823 38.724 2.823L36.019 19.175H39.85L41.025 11.517L44.289 19.175H48.56L44.438 10.084C43.742 8.815 43.599 8.058 44.438 6.985C45.136 6.15 46.247 5.073 46.247 5.073C46.247 5.073 44.578 5.827 43.32 5.59C42.141 5.391 41.583 4.911 41.583 4.911Z" fill="#172B85"/>
    <path d="M24.586 11.795C24.447 12.63 23.89 13.466 22.994 13.466C22.157 13.466 21.738 12.63 21.877 11.795C22.016 10.959 22.574 10.124 23.47 10.124C24.366 10.124 24.725 10.959 24.586 11.795Z" fill="#F7A823"/>
  </g>
</svg>