<svg xmlns="http://www.w3.org/2000/svg" width="60" height="40" viewBox="0 0 60 40">
  <rect width="60" height="40" rx="4" fill="white" stroke="#E6E6E6" stroke-width="1"/>
  <g transform="translate(8, 10)">
    <path d="M29.319 19.375H14.681V1.625H29.319V19.375Z" fill="#FF5F00"/>
    <path d="M15.452 10.5C15.452 7.156 16.993 4.15 19.433 2.065C17.371 0.774 14.916 0 12.277 0C5.498 0 0 4.701 0 10.5C0 16.299 5.498 21 12.277 21C14.916 21 17.371 20.226 19.433 18.935C16.993 16.85 15.452 13.844 15.452 10.5Z" fill="#EB001B"/>
    <path d="M44 10.5C44 16.299 38.502 21 31.723 21C29.084 21 26.629 20.226 24.567 18.935C27.007 16.85 28.548 13.844 28.548 10.5C28.548 7.156 27.007 4.15 24.567 2.065C26.629 0.774 29.084 0 31.723 0C38.502 0 44 4.701 44 10.5Z" fill="#F79E1B"/>
  </g>
</svg>